<?xml version="1.0" encoding="UTF-8"?>
<svg id="Livello_1" data-name="Livello 1" xmlns="http://www.w3.org/2000/svg" viewBox="0 0 560.59 64.44">
  <defs>
    <style>
      .cls-1 {
        fill: #e20613;
      }

      .cls-2 {
        fill: #fff;
      }
    </style>
  </defs>
  <path class="cls-2" d="M26.42.58l13.61,51.41h-10.8l-2.38-10.87h-13.68l-2.38,10.87H0L13.61.58h12.82ZM25.06,32.62l-4.97-23.11h-.14l-4.97,23.11h10.08Z"/>
  <path class="cls-2" d="M53.64.58v51.41h-9.94V.58h9.94Z"/>
  <path class="cls-2" d="M70.92.58v51.41h-9.94V.58h9.94Z"/>
  <path class="cls-2" d="M124.2.58v8.5h-18.36v12.1h17.28v8.5h-17.28v22.32h-10.37V.58h28.73Z"/>
  <path class="cls-2" d="M137.52,0v8.5h-9.94V0h9.94ZM137.52,13.25v38.74h-9.94V13.25h9.94Z"/>
  <path class="cls-2" d="M153,37.22c0,1.15.08,2.27.25,3.35.17,1.08.44,2.04.83,2.88.38.84.89,1.51,1.51,2.02.62.5,1.39.76,2.3.76,1.68,0,2.9-.6,3.67-1.8.77-1.2,1.3-3.02,1.58-5.47h8.93c-.19,4.51-1.39,7.94-3.6,10.3-2.21,2.35-5.69,3.53-10.44,3.53-3.6,0-6.41-.6-8.42-1.8-2.02-1.2-3.5-2.78-4.46-4.75-.96-1.97-1.55-4.18-1.76-6.62-.22-2.45-.32-4.9-.32-7.34,0-2.59.18-5.09.54-7.49.36-2.4,1.08-4.54,2.16-6.41,1.08-1.87,2.63-3.36,4.64-4.46,2.02-1.1,4.7-1.66,8.06-1.66,2.88,0,5.24.47,7.09,1.4,1.85.94,3.3,2.26,4.36,3.96,1.06,1.7,1.78,3.77,2.16,6.19.38,2.42.58,5.12.58,8.1v2.23h-19.66v3.1ZM162.86,24.3c-.14-1.13-.4-2.09-.76-2.88s-.86-1.39-1.51-1.8c-.65-.41-1.48-.61-2.48-.61s-1.84.23-2.48.68c-.65.46-1.16,1.06-1.55,1.8-.38.75-.66,1.57-.83,2.48-.17.91-.25,1.82-.25,2.74v1.51h10.15c-.05-1.49-.14-2.8-.29-3.92Z"/>
  <path class="cls-2" d="M188.13.58v51.41h-9.94V.58h9.94Z"/>
  <path class="cls-2" d="M214.85,47.88c-1.1,1.82-2.34,3.1-3.71,3.82-1.37.72-3.06,1.08-5.08,1.08-4.08,0-7.08-1.56-9-4.68-1.92-3.12-2.88-8.28-2.88-15.48s.96-12.4,2.88-15.59c1.92-3.19,4.92-4.79,9-4.79,1.87,0,3.47.38,4.79,1.15,1.32.77,2.51,1.92,3.56,3.46h.14V.58h9.94v51.41h-9.5v-4.1h-.14ZM205.09,42.16c.65,2.14,2.05,3.2,4.21,3.2s3.64-1.07,4.28-3.2c.65-2.14.97-5.32.97-9.54s-.32-7.4-.97-9.54c-.65-2.14-2.08-3.2-4.28-3.2s-3.56,1.07-4.21,3.2c-.65,2.14-.97,5.32-.97,9.54s.32,7.4.97,9.54Z"/>
  <path class="cls-2" d="M238.39,40.61c0,1.68.44,3.04,1.33,4.07.89,1.03,2.17,1.55,3.85,1.55,1.54,0,2.76-.38,3.67-1.15.91-.77,1.37-1.92,1.37-3.46,0-1.25-.36-2.2-1.08-2.84s-1.56-1.16-2.52-1.55l-6.98-2.52c-2.74-.96-4.8-2.32-6.19-4.07-1.39-1.75-2.09-4-2.09-6.73,0-1.58.26-3.08.79-4.5.53-1.42,1.37-2.65,2.52-3.71,1.15-1.06,2.63-1.9,4.43-2.52,1.8-.62,3.97-.94,6.52-.94,4.51,0,7.85.96,10.01,2.88,2.16,1.92,3.24,4.63,3.24,8.14v1.58h-8.93c0-2.02-.32-3.49-.97-4.43-.65-.94-1.79-1.4-3.42-1.4-1.25,0-2.34.35-3.28,1.04-.94.7-1.4,1.74-1.4,3.13,0,.96.3,1.82.9,2.59.6.77,1.74,1.42,3.42,1.94l5.98,2.02c3.12,1.06,5.33,2.44,6.62,4.14,1.3,1.7,1.94,4.02,1.94,6.95,0,2.06-.36,3.85-1.08,5.36-.72,1.51-1.72,2.77-2.99,3.78-1.27,1.01-2.78,1.73-4.54,2.16-1.75.43-3.68.65-5.8.65-2.78,0-5.1-.26-6.95-.79-1.85-.53-3.31-1.32-4.39-2.38-1.08-1.06-1.84-2.34-2.27-3.85-.43-1.51-.65-3.2-.65-5.08v-1.37h8.93v1.3Z"/>
  <path class="cls-2" d="M299.8.58c4.32,0,7.68,1.09,10.08,3.28,2.4,2.18,3.6,5.51,3.6,9.97,0,3.46-.7,6.28-2.09,8.46-1.39,2.19-3.55,3.59-6.48,4.21v.14c2.59.38,4.49,1.22,5.69,2.52,1.2,1.3,1.94,3.38,2.23,6.26.1.96.17,2,.21,3.13.05,1.13.1,2.39.14,3.78.1,2.74.24,4.82.43,6.26.29,1.44.91,2.42,1.87,2.95v.43h-11.23c-.53-.72-.87-1.55-1.01-2.48-.14-.94-.24-1.91-.29-2.92l-.29-9.86c-.1-2.02-.6-3.6-1.51-4.75-.91-1.15-2.45-1.73-4.61-1.73h-5.54v21.74h-10.37V.58h19.15ZM295.34,23.04c2.49,0,4.42-.59,5.76-1.76,1.34-1.18,2.02-3.16,2.02-5.94,0-4.75-2.4-7.13-7.2-7.13h-4.9v14.83h4.32Z"/>
  <path class="cls-2" d="M328.89,37.22c0,1.15.08,2.27.25,3.35s.44,2.04.83,2.88c.38.84.89,1.51,1.51,2.02.62.5,1.39.76,2.3.76,1.68,0,2.9-.6,3.67-1.8.77-1.2,1.3-3.02,1.58-5.47h8.93c-.19,4.51-1.39,7.94-3.6,10.3-2.21,2.35-5.69,3.53-10.44,3.53-3.6,0-6.41-.6-8.42-1.8-2.02-1.2-3.5-2.78-4.46-4.75-.96-1.97-1.55-4.18-1.76-6.62-.22-2.45-.32-4.9-.32-7.34,0-2.59.18-5.09.54-7.49.36-2.4,1.08-4.54,2.16-6.41s2.63-3.36,4.64-4.46c2.02-1.1,4.7-1.66,8.06-1.66,2.88,0,5.24.47,7.09,1.4,1.85.94,3.3,2.26,4.36,3.96,1.06,1.7,1.78,3.77,2.16,6.19.38,2.42.58,5.12.58,8.1v2.23h-19.66v3.1ZM338.76,24.3c-.14-1.13-.4-2.09-.76-2.88s-.86-1.39-1.51-1.8c-.65-.41-1.48-.61-2.48-.61s-1.84.23-2.48.68c-.65.46-1.16,1.06-1.55,1.8-.38.75-.66,1.57-.83,2.48-.17.91-.25,1.82-.25,2.74v1.51h10.15c-.05-1.49-.14-2.8-.29-3.92Z"/>
  <path class="cls-2" d="M373.03,48.38c-1.06,1.54-2.25,2.65-3.56,3.35-1.32.7-2.92,1.04-4.79,1.04-4.08,0-7.08-1.56-9-4.68-1.92-3.12-2.88-8.28-2.88-15.48s.96-12.4,2.88-15.59c1.92-3.19,4.92-4.79,9-4.79,2.02,0,3.71.4,5.08,1.19s2.6,2.1,3.71,3.92h.14v-4.1h9.5v51.19h-9.94v-16.06h-.14ZM372.2,23.08c-.65-2.14-2.08-3.2-4.28-3.2s-3.56,1.07-4.21,3.2c-.65,2.14-.97,5.32-.97,9.54s.32,7.4.97,9.54c.65,2.14,2.05,3.2,4.21,3.2s3.64-1.07,4.28-3.2c.65-2.14.97-5.32.97-9.54s-.32-7.4-.97-9.54Z"/>
  <path class="cls-2" d="M409.46,47.45c-1.06,1.92-2.42,3.29-4.1,4.1-1.68.82-3.6,1.22-5.76,1.22-3.17,0-5.6-.83-7.31-2.48-1.7-1.66-2.56-4.43-2.56-8.32V13.25h9.94v26.71c0,2.02.33,3.42,1.01,4.21.67.79,1.75,1.19,3.24,1.19,3.5,0,5.26-2.14,5.26-6.41V13.25h9.94v38.74h-9.5v-4.54h-.14Z"/>
  <path class="cls-2" d="M436.03,0v8.5h-9.94V0h9.94ZM436.03,13.25v38.74h-9.94V13.25h9.94Z"/>
  <path class="cls-2" d="M452.52,13.25v5.18h.14c1.01-1.87,2.23-3.37,3.67-4.5,1.44-1.13,3.19-1.69,5.26-1.69.29,0,.59.01.9.04.31.02.61.06.9.11v9.5c-.53-.05-1.04-.08-1.55-.11-.5-.02-1.02-.04-1.55-.04-.86,0-1.73.12-2.59.36-.86.24-1.66.64-2.38,1.19-.72.55-1.3,1.27-1.73,2.16-.43.89-.65,1.98-.65,3.28v23.26h-9.94V13.25h9.5Z"/>
  <path class="cls-2" d="M475.48,37.22c0,1.15.08,2.27.25,3.35s.44,2.04.83,2.88c.38.84.89,1.51,1.51,2.02.62.5,1.39.76,2.3.76,1.68,0,2.9-.6,3.67-1.8.77-1.2,1.3-3.02,1.58-5.47h8.93c-.19,4.51-1.39,7.94-3.6,10.3-2.21,2.35-5.69,3.53-10.44,3.53-3.6,0-6.41-.6-8.42-1.8-2.02-1.2-3.5-2.78-4.46-4.75-.96-1.97-1.55-4.18-1.76-6.62-.22-2.45-.32-4.9-.32-7.34,0-2.59.18-5.09.54-7.49.36-2.4,1.08-4.54,2.16-6.41s2.63-3.36,4.64-4.46c2.02-1.1,4.7-1.66,8.06-1.66,2.88,0,5.24.47,7.09,1.4,1.85.94,3.3,2.26,4.36,3.96,1.06,1.7,1.78,3.77,2.16,6.19.38,2.42.58,5.12.58,8.1v2.23h-19.66v3.1ZM485.35,24.3c-.14-1.13-.4-2.09-.76-2.88s-.86-1.39-1.51-1.8c-.65-.41-1.48-.61-2.48-.61s-1.84.23-2.48.68c-.65.46-1.16,1.06-1.55,1.8-.38.75-.66,1.57-.83,2.48-.17.91-.25,1.82-.25,2.74v1.51h10.15c-.05-1.49-.14-2.8-.29-3.92Z"/>
  <path class="cls-2" d="M520.05,47.88c-1.1,1.82-2.34,3.1-3.71,3.82-1.37.72-3.06,1.08-5.08,1.08-4.08,0-7.08-1.56-9-4.68-1.92-3.12-2.88-8.28-2.88-15.48s.96-12.4,2.88-15.59c1.92-3.19,4.92-4.79,9-4.79,1.87,0,3.47.38,4.79,1.15,1.32.77,2.51,1.92,3.56,3.46h.14V.58h9.94v51.41h-9.5v-4.1h-.14ZM510.29,42.16c.65,2.14,2.05,3.2,4.21,3.2s3.64-1.07,4.28-3.2c.65-2.14.97-5.32.97-9.54s-.32-7.4-.97-9.54c-.65-2.14-2.08-3.2-4.28-3.2s-3.56,1.07-4.21,3.2c-.65,2.14-.97,5.32-.97,9.54s.32,7.4.97,9.54Z"/>
  <path class="cls-1" d="M550,9.79l8.78-2.88,1.8,5.62-8.78,2.88,5.47,7.49-4.82,3.46-5.4-7.49-5.4,7.49-4.82-3.46,5.47-7.49-8.78-2.88,1.8-5.62,8.78,2.88V.58h5.9v9.22Z"/>
</svg>